<?xml version="1.0" encoding="UTF-8"?>
<svg id="a" data-name="Layer 1" xmlns="http://www.w3.org/2000/svg" viewBox="0 0 45.58 46.29">
  <path d="m22.79,0C10.2,0,0,10.36,0,23.14s10.2,23.14,22.79,23.14,22.79-10.36,22.79-23.14S35.38,0,22.79,0Zm-14,16.5l10.16,6.64-10.16,6.6v-13.24Zm28,15.29c0,.51-.41.92-.92.92H9.71c-.51,0-.92-.41-.92-.92v-1.03l11.07-7.01,2.27,1.48c.4.26.92.26,1.32,0l2.43-1.59,10.91,7.08v1.07Zm0-2.26l-10-6.49,10-6.54v13.02Zm0-14.22l-13.34,8.72c-.4.26-.92.26-1.32,0l-13.34-8.72v-.8c0-.51.41-.92.92-.92h26.16c.51,0,.92.41.92.92v.8Z" style="fill: #161616; stroke-width: 0px;"/>
</svg>