<?xml version="1.0" encoding="UTF-8"?>
<svg id="a" data-name="Layer 1" xmlns="http://www.w3.org/2000/svg" viewBox="0 0 45.7 45.73">
  <path d="m22.85,0C10.23,0,0,10.39,0,23.2c0,10.74,7.18,19.77,16.94,22.42.16.04.33.08.49.12l-.28-7.84s-2.39.13-4.98-.13c-2.4-.24-4.81-2.39-5.86-6.6,0,0-.82-2.66.88-1.1,1.69,1.56,5.67,5.77,10.4,4.85,0,0,.25-.95.95-1.59-6.1-1.45-10.56-6.02-10.56-11.43,0-2.91,1.29-5.57,3.42-7.64-.54-1.36-.93-3.63-.18-4.79.7-1.08,2.97.49,4.14,2.1,2.16-1.01,4.65-1.59,7.32-1.59s5.24.6,7.42,1.64c1.16-1.62,3.48-3.23,4.19-2.15.78,1.19.34,3.55-.23,4.88,2.08,2.06,3.33,4.69,3.33,7.55,0,5.29-4.26,9.77-10.14,11.33,1.11.75,1.37,1.67,1.37,1.67.5,1.39.04,9.45-.04,10.77,9.85-2.58,17.12-11.66,17.12-22.46C45.7,10.39,35.47,0,22.85,0Z" style="fill: #161616; stroke-width: 0px;"/>
</svg>