<?xml version="1.0" encoding="UTF-8"?>
<svg id="a" data-name="Layer 1" xmlns="http://www.w3.org/2000/svg" viewBox="0 0 45.18 45.18">
  <path d="m37.03,45.18H8.16c-4.5,0-8.16-3.66-8.16-8.16V8.16C0,3.66,3.66,0,8.16,0h28.87c4.5,0,8.16,3.66,8.16,8.16v28.87c0,4.5-3.66,8.16-8.16,8.16ZM8.16,1c-3.95,0-7.16,3.21-7.16,7.16v28.87c0,3.95,3.21,7.16,7.16,7.16h28.87c3.95,0,7.16-3.21,7.16-7.16V8.16c0-3.95-3.21-7.16-7.16-7.16H8.16Z" style="fill: #ddd; stroke-width: 0px;"/>
  <path d="m22.59,33.4c-6.12,0-11.11-4.85-11.11-10.81s4.98-10.81,11.11-10.81,11.11,4.85,11.11,10.81-4.98,10.81-11.11,10.81Zm0-20.62c-5.57,0-10.11,4.4-10.11,9.81s4.53,9.81,10.11,9.81,10.11-4.4,10.11-9.81-4.53-9.81-10.11-9.81Z" style="fill: #ddd; stroke-width: 0px;"/>
  <circle cx="34.86" cy="9.95" r="2.33" style="fill: #ddd; stroke-width: 0px;"/>
</svg>