<?xml version="1.0" encoding="UTF-8"?>
<svg id="a" data-name="Layer 1" xmlns="http://www.w3.org/2000/svg" viewBox="0 0 42.14 42.14">
  <path d="m38.75,0H3.39C1.52,0,0,1.52,0,3.39v35.36c0,1.87,1.52,3.39,3.39,3.39h35.36c1.87,0,3.39-1.52,3.39-3.39V3.39c0-1.87-1.52-3.39-3.39-3.39ZM13.24,34.21h-5.45V15.83h5.45v18.39Zm-2.72-21.08c-1.83,0-3.15-1.19-3.15-2.85s1.33-2.85,3.15-2.85,3.15,1.18,3.15,2.85-1.33,2.85-3.15,2.85Zm24.08,21.08h-5.45v-10.72c0-2.65-.71-3.47-2.28-3.47-1.37,0-2.21.64-3.4,1.79v12.4h-5.45V15.83h4.44l.39,2.33h.14c1.55-1.49,3.4-2.77,5.91-2.77,4,0,5.7,2.82,5.7,7.42v11.42Z" style="fill: #161616; stroke-width: 0px;"/>
</svg>