<svg width="200" height="200" viewBox="0 0 200 200" fill="none" xmlns="http://www.w3.org/2000/svg">
<rect width="200" height="200" fill="none"/>
<path d="M58.3021 43.7304L71.3234 58.7712L72.2646 59.8583L73.5949 59.3123L92.3862 51.6L81.6063 68.4622L80.8023 69.72L81.7793 70.8486L94.7081 85.7824L74.966 81.304L73.5955 80.9931L72.8385 82.1772L61.9346 99.2334L60.6446 79.5227L60.5471 78.0331L59.0913 77.7029L39.5736 73.2754L58.365 65.563L59.6952 65.0171L59.6013 63.5822L58.3021 43.7304Z" fill="#DFDFDF" stroke="#E9E9E9" stroke-width="4"/>
<mask id="path-2-inside-1_2147_15" fill="white">
<path fill-rule="evenodd" clip-rule="evenodd" d="M67.7592 133.546C103.394 133.546 132.282 103.002 132.282 65.3246C132.282 48.4043 126.456 32.9227 116.81 21C151.489 28.4274 177.49 59.2511 177.49 96.1477C177.49 138.592 143.082 173 100.638 173C65.8627 173 36.4825 149.904 27 118.214C38.1117 127.799 52.3006 133.546 67.7592 133.546Z"/>
</mask>
<path fill-rule="evenodd" clip-rule="evenodd" d="M67.7592 133.546C103.394 133.546 132.282 103.002 132.282 65.3246C132.282 48.4043 126.456 32.9227 116.81 21C151.489 28.4274 177.49 59.2511 177.49 96.1477C177.49 138.592 143.082 173 100.638 173C65.8627 173 36.4825 149.904 27 118.214C38.1117 127.799 52.3006 133.546 67.7592 133.546Z" fill="#DFDFDF"/>
<path d="M116.81 21L117.648 17.0887L106.583 14.7188L113.7 23.516L116.81 21ZM27 118.214L29.6126 115.185L19.2416 106.239L23.1679 119.36L27 118.214ZM128.282 65.3246C128.282 101.006 100.978 129.546 67.7592 129.546V137.546C105.811 137.546 136.282 104.999 136.282 65.3246H128.282ZM113.7 23.516C122.778 34.7355 128.282 49.3314 128.282 65.3246H136.282C136.282 47.4772 130.135 31.11 119.92 18.484L113.7 23.516ZM115.972 24.9113C148.845 31.9518 173.49 61.1764 173.49 96.1477H181.49C181.49 57.3259 154.133 24.9029 117.648 17.0887L115.972 24.9113ZM173.49 96.1477C173.49 136.383 140.873 169 100.638 169V177C145.291 177 181.49 140.801 181.49 96.1477H173.49ZM100.638 169C67.6786 169 39.8219 147.11 30.8321 117.067L23.1679 119.36C33.143 152.697 64.0469 177 100.638 177V169ZM67.7592 129.546C53.3184 129.546 40.0437 124.183 29.6126 115.185L24.3874 121.243C36.1797 131.415 51.2828 137.546 67.7592 137.546V129.546Z" fill="#F1F1F1" mask="url(#path-2-inside-1_2147_15)"/>
</svg>
